<svg xmlns="http://www.w3.org/2000/svg" viewBox="0 0 64 64" fill="none">
  <!-- Background gradient circle -->
  <defs>
    <linearGradient id="bgGradient" x1="0%" y1="0%" x2="100%" y2="100%">
      <stop offset="0%" style="stop-color:#FF6B6B;stop-opacity:1" />
      <stop offset="100%" style="stop-color:#EE5A6F;stop-opacity:1" />
    </linearGradient>
    <linearGradient id="nodeGradient" x1="0%" y1="0%" x2="100%" y2="100%">
      <stop offset="0%" style="stop-color:#FFE66D;stop-opacity:1" />
      <stop offset="100%" style="stop-color:#FFB347;stop-opacity:1" />
    </linearGradient>
  </defs>

  <!-- Main background circle with gradient -->
  <circle cx="32" cy="32" r="30" fill="url(#bgGradient)" opacity="0.15"/>

  <!-- Outer ring -->
  <circle cx="32" cy="32" r="28" fill="none" stroke="url(#bgGradient)" stroke-width="2" opacity="0.8"/>

  <!-- Neural network nodes (representing AI) -->
  <!-- Top row nodes -->
  <circle cx="20" cy="18" r="4" fill="url(#nodeGradient)" stroke="#FF6B6B" stroke-width="1.5"/>
  <circle cx="32" cy="14" r="4" fill="url(#nodeGradient)" stroke="#FF6B6B" stroke-width="1.5"/>
  <circle cx="44" cy="18" r="4" fill="url(#nodeGradient)" stroke="#FF6B6B" stroke-width="1.5"/>

  <!-- Middle row nodes -->
  <circle cx="16" cy="32" r="4" fill="url(#nodeGradient)" stroke="#FF6B6B" stroke-width="1.5"/>
  <circle cx="32" cy="32" r="6" fill="#FFF" stroke="#FF6B6B" stroke-width="2.5"/>
  <circle cx="48" cy="32" r="4" fill="url(#nodeGradient)" stroke="#FF6B6B" stroke-width="1.5"/>

  <!-- Bottom row nodes -->
  <circle cx="20" cy="46" r="4" fill="url(#nodeGradient)" stroke="#FF6B6B" stroke-width="1.5"/>
  <circle cx="32" cy="50" r="4" fill="url(#nodeGradient)" stroke="#FF6B6B" stroke-width="1.5"/>
  <circle cx="44" cy="46" r="4" fill="url(#nodeGradient)" stroke="#FF6B6B" stroke-width="1.5"/>

  <!-- Neural connections (lines between nodes) -->
  <!-- Top to middle connections -->
  <line x1="20" y1="18" x2="16" y2="32" stroke="#FF6B6B" stroke-width="1.5" opacity="0.6"/>
  <line x1="20" y1="18" x2="32" y2="32" stroke="#FF6B6B" stroke-width="1.5" opacity="0.6"/>
  <line x1="32" y1="14" x2="32" y2="32" stroke="#FF6B6B" stroke-width="1.5" opacity="0.6"/>
  <line x1="44" y1="18" x2="48" y2="32" stroke="#FF6B6B" stroke-width="1.5" opacity="0.6"/>
  <line x1="44" y1="18" x2="32" y2="32" stroke="#FF6B6B" stroke-width="1.5" opacity="0.6"/>

  <!-- Middle to bottom connections -->
  <line x1="16" y1="32" x2="20" y2="46" stroke="#FF6B6B" stroke-width="1.5" opacity="0.6"/>
  <line x1="16" y1="32" x2="32" y2="50" stroke="#FF6B6B" stroke-width="1.5" opacity="0.6"/>
  <line x1="32" y1="32" x2="20" y2="46" stroke="#FF6B6B" stroke-width="1.5" opacity="0.6"/>
  <line x1="32" y1="32" x2="32" y2="50" stroke="#FF6B6B" stroke-width="1.5" opacity="0.6"/>
  <line x1="32" y1="32" x2="44" y2="46" stroke="#FF6B6B" stroke-width="1.5" opacity="0.6"/>
  <line x1="48" y1="32" x2="44" y2="46" stroke="#FF6B6B" stroke-width="1.5" opacity="0.6"/>
  <line x1="48" y1="32" x2="32" y2="50" stroke="#FF6B6B" stroke-width="1.5" opacity="0.6"/>

  <!-- Center icon - AI/Sparkle symbol -->
  <circle cx="32" cy="32" r="2.5" fill="#FF6B6B"/>

  <!-- Decorative corner accents -->
  <path d="M 8 12 L 8 8 L 12 8" stroke="#FF6B6B" stroke-width="2" fill="none" stroke-linecap="round"/>
  <path d="M 52 12 L 52 8 L 56 8" stroke="#FF6B6B" stroke-width="2" fill="none" stroke-linecap="round" transform="rotate(90 54 10)"/>
  <path d="M 8 52 L 8 56 L 12 56" stroke="#FF6B6B" stroke-width="2" fill="none" stroke-linecap="round" transform="rotate(-90 10 54)"/>
  <path d="M 52 52 L 52 56 L 56 56" stroke="#FF6B6B" stroke-width="2" fill="none" stroke-linecap="round" transform="rotate(180 54 54)"/>
</svg>
